<svg width="49" height="49" viewBox="0 0 49 49" fill="none" xmlns="http://www.w3.org/2000/svg">
<path d="M39.0774 26.4192C39.159 25.8067 39.1999 25.1737 39.1999 24.5C39.1999 23.8467 39.159 23.1933 39.0569 22.5808L43.2015 19.355C43.3801 19.2078 43.5022 19.0032 43.5468 18.7761C43.5915 18.549 43.5561 18.3135 43.4465 18.1096L39.5265 11.3312C39.4105 11.1268 39.2262 10.9697 39.0059 10.8876C38.7857 10.8054 38.5435 10.8035 38.3219 10.8821L33.4424 12.8421C32.4215 12.0662 31.3394 11.4129 30.1349 10.9229L29.3999 5.73708C29.3637 5.50337 29.2449 5.29038 29.0651 5.13678C28.8853 4.98319 28.6564 4.89917 28.4199 4.9H20.5799C20.0899 4.9 19.7019 5.24708 19.6203 5.73708L18.8853 10.9229C17.6807 11.4129 16.5782 12.0867 15.5778 12.8421L10.6982 10.8821C10.249 10.7187 9.73862 10.8821 9.49362 11.3312L5.59403 18.1096C5.34903 18.5383 5.4307 19.0692 5.83903 19.355L9.98362 22.5808C9.88153 23.1933 9.79987 23.8671 9.79987 24.5C9.79987 25.1329 9.8407 25.8067 9.94278 26.4192L5.7982 29.645C5.6196 29.7922 5.49757 29.9968 5.4529 30.2239C5.40822 30.451 5.44367 30.6865 5.5532 30.8904L9.4732 37.6687C9.7182 38.1179 10.2286 38.2608 10.6778 38.1179L15.5574 36.1579C16.5782 36.9337 17.6603 37.5871 18.8649 38.0771L19.5999 43.2629C19.7019 43.7529 20.0899 44.1 20.5799 44.1H28.4199C28.9099 44.1 29.3182 43.7529 29.3794 43.2629L30.1144 38.0771C31.319 37.5871 32.4215 36.9337 33.4219 36.1579L38.3015 38.1179C38.7507 38.2812 39.2611 38.1179 39.5061 37.6687L43.4261 30.8904C43.6711 30.4412 43.569 29.9308 43.1811 29.645L39.0774 26.4192ZM24.4999 31.85C20.4574 31.85 17.1499 28.5425 17.1499 24.5C17.1499 20.4575 20.4574 17.15 24.4999 17.15C28.5424 17.15 31.8499 20.4575 31.8499 24.5C31.8499 28.5425 28.5424 31.85 24.4999 31.85Z" fill="white"/>
</svg>
