<svg width="40" height="40" viewBox="0 0 40 40" fill="none" xmlns="http://www.w3.org/2000/svg">
<path d="M31.328 0H8.67292C6.15721 0 4.11877 2.03935 4.11877 4.55415V35.4459C4.11877 37.9607 6.15721 40 8.67292 40H31.3262C33.8419 40 35.8803 37.9607 35.8803 35.4459V4.55415C35.8821 2.03935 33.841 0 31.328 0ZM8.38692 15.352C8.38692 14.2845 9.25312 13.4202 10.3188 13.4202H10.9946C10.2742 12.6241 9.8315 11.5712 9.8315 10.4108C9.8315 7.9306 11.8435 5.91948 14.3237 5.91948C16.8057 5.91948 18.8159 7.92968 18.8159 10.4117C18.8159 11.5703 18.3733 12.6241 17.651 13.4202H18.2967C19.3642 13.4202 20.2286 14.2845 20.2286 15.352V18.611C20.2286 19.6329 19.4316 20.46 18.4297 20.5292H10.1858C9.1839 20.46 8.38692 19.6329 8.38692 18.611V15.352ZM29.7914 34.0796H10.2086C9.20303 34.0796 8.38692 33.2635 8.38692 32.2579C8.38692 31.2524 9.20303 30.4363 10.2086 30.4363H29.7914C30.797 30.4363 31.6131 31.2524 31.6131 32.2579C31.6131 33.2635 30.797 34.0796 29.7914 34.0796ZM29.7914 27.2484H10.2086C9.20303 27.2484 8.38692 26.4323 8.38692 25.4267C8.38692 24.4212 9.20303 23.6051 10.2086 23.6051H29.7914C30.797 23.6051 31.6131 24.4212 31.6131 25.4267C31.6131 26.4323 30.797 27.2484 29.7914 27.2484ZM29.7914 20.4172H23.871C22.8655 20.4172 22.0494 19.6011 22.0494 18.5955C22.0494 17.5899 22.8655 16.7738 23.871 16.7738H29.7914C30.797 16.7738 31.6131 17.5899 31.6131 18.5955C31.6131 19.6011 30.797 20.4172 29.7914 20.4172Z" fill="#D460D0"/>
</svg>
