<svg width="800" height="800" viewBox="0 0 800 800" fill="none" xmlns="http://www.w3.org/2000/svg">
<path d="M5.20664 464.264V375.231H116.368V370.024H5.20664V288.8H123.397V283.594H0V469.471H124.439V464.264H5.20664ZM224.666 335.66L178.588 396.317L133.55 335.66H126.782L175.464 400.222L122.096 469.471H128.344L178.588 404.127L229.092 469.471H235.6L181.972 400.222L230.914 335.66H224.666ZM251.22 515.289V431.983H251.741C254.865 444.132 261.026 453.894 270.225 461.27C279.423 468.646 291.138 472.334 305.369 472.334C314.568 472.334 322.725 470.469 329.841 466.737C336.956 463.006 342.9 457.929 347.673 451.508C352.446 445.086 356.091 437.624 358.607 429.119C361.124 420.615 362.382 411.677 362.382 402.305C362.382 392.239 361.08 382.954 358.477 374.45C355.874 365.945 352.099 358.569 347.153 352.321C342.206 346.073 336.219 341.214 329.19 337.743C322.161 334.272 314.221 332.536 305.369 332.536C298.601 332.536 292.309 333.534 286.495 335.53C280.681 337.526 275.518 340.346 271.006 343.991C266.493 347.635 262.588 351.931 259.291 356.877C255.993 361.824 253.477 367.247 251.741 373.148H251.22V335.66H246.014V515.289H251.22ZM305.369 467.388C289.055 467.388 275.952 461.791 266.059 450.597C256.167 439.402 251.22 423.305 251.22 402.305C251.22 393.627 252.435 385.384 254.865 377.574C257.295 369.764 260.809 362.908 265.408 357.007C270.008 351.106 275.691 346.421 282.46 342.949C289.229 339.478 296.865 337.743 305.369 337.743C314.047 337.743 321.64 339.478 328.148 342.949C334.657 346.421 340.037 351.15 344.289 357.138C348.541 363.125 351.752 369.981 353.921 377.704C356.091 385.427 357.175 393.627 357.175 402.305C357.175 410.115 356.177 417.882 354.182 425.605C352.186 433.328 349.105 440.27 344.94 446.431C340.774 452.593 335.438 457.626 328.929 461.531C322.421 465.436 314.568 467.388 305.369 467.388ZM391.019 469.471V393.714C391.019 386.425 392.06 379.309 394.143 372.367C396.225 365.425 399.436 359.307 403.775 354.014C408.114 348.72 413.624 344.555 420.306 341.518C426.988 338.48 434.928 337.222 444.126 337.743V332.536C436.143 332.363 429.157 333.23 423.17 335.139C417.182 337.049 412.019 339.652 407.68 342.949C403.341 346.247 399.87 350.109 397.267 354.534C394.663 358.96 392.754 363.689 391.539 368.722H391.019V335.66H385.812V469.471H391.019ZM450.635 403.607H562.577C562.924 394.408 562.013 385.557 559.844 377.053C557.674 368.549 554.203 360.999 549.431 354.404C544.658 347.809 538.497 342.516 530.947 338.524C523.397 334.532 514.416 332.536 504.003 332.536C496.54 332.536 489.25 334.098 482.135 337.222C475.019 340.346 468.771 344.902 463.391 350.89C458.011 356.877 453.672 364.21 450.374 372.888C447.077 381.565 445.428 391.458 445.428 402.565C445.428 412.458 446.556 421.7 448.812 430.291C451.068 438.882 454.54 446.345 459.226 452.679C463.912 459.014 469.942 463.917 477.319 467.388C484.695 470.859 493.589 472.508 504.003 472.334C519.275 472.334 532.118 468.039 542.532 459.448C552.945 450.857 559.106 438.752 561.015 423.132H555.809C553.552 437.884 547.782 448.948 538.497 456.324C529.211 463.7 517.54 467.388 503.482 467.388C493.936 467.388 485.866 465.739 479.271 462.442C472.676 459.144 467.296 454.632 463.13 448.905C458.965 443.177 455.885 436.452 453.889 428.729C451.893 421.006 450.808 412.632 450.635 403.607ZM557.371 398.4H450.635C451.155 389.028 452.891 380.611 455.841 373.148C458.792 365.685 462.653 359.307 467.426 354.014C472.199 348.72 477.752 344.685 484.087 341.908C490.422 339.131 497.234 337.743 504.523 337.743C513.201 337.743 520.837 339.348 527.432 342.559C534.028 345.77 539.538 350.152 543.964 355.706C548.389 361.259 551.73 367.724 553.986 375.1C556.243 382.477 557.371 390.243 557.371 398.4ZM670.615 375.231H675.822C675.822 360.305 671.483 349.458 662.805 342.689C654.127 335.92 642.326 332.536 627.4 332.536C619.069 332.536 612.04 333.577 606.313 335.66C600.586 337.743 595.9 340.433 592.255 343.73C588.61 347.028 586.007 350.673 584.445 354.664C582.883 358.656 582.102 362.474 582.102 366.119C582.102 373.408 583.404 379.222 586.007 383.561C588.61 387.9 592.689 391.284 598.243 393.714C602.061 395.45 606.4 397.012 611.259 398.4C616.119 399.789 621.759 401.264 628.181 402.826C633.908 404.214 639.549 405.603 645.103 406.991C650.656 408.38 655.559 410.245 659.811 412.588C664.063 414.931 667.534 417.925 670.225 421.57C672.915 425.214 674.26 429.987 674.26 435.888C674.26 441.615 672.915 446.475 670.225 450.467C667.534 454.458 664.107 457.712 659.941 460.229C655.776 462.746 651.134 464.568 646.014 465.696C640.894 466.824 635.904 467.388 631.045 467.388C615.251 467.388 603.146 463.874 594.728 456.845C586.311 449.816 582.102 438.752 582.102 423.652H576.896C576.896 440.487 581.451 452.809 590.563 460.619C599.675 468.429 613.168 472.334 631.045 472.334C636.772 472.334 642.543 471.684 648.357 470.382C654.171 469.08 659.377 466.954 663.977 464.004C668.576 461.053 672.307 457.235 675.171 452.549C678.035 447.863 679.466 442.136 679.466 435.367C679.466 428.946 678.208 423.739 675.692 419.747C673.175 415.756 669.877 412.458 665.799 409.855C661.72 407.251 657.121 405.212 652.001 403.737C646.881 402.262 641.718 400.83 636.512 399.441C629.222 397.532 622.844 395.884 617.377 394.495C611.91 393.107 606.834 391.458 602.148 389.549C597.635 387.64 594.034 384.906 591.344 381.348C588.654 377.791 587.309 372.714 587.309 366.119C587.309 364.904 587.656 362.735 588.35 359.611C589.044 356.487 590.693 353.319 593.296 350.109C595.9 346.898 599.891 344.034 605.272 341.518C610.652 339.001 618.028 337.743 627.4 337.743C633.821 337.743 639.679 338.437 644.972 339.825C650.266 341.214 654.822 343.427 658.64 346.464C662.458 349.501 665.408 353.363 667.491 358.049C669.574 362.735 670.615 368.462 670.615 375.231ZM791.149 375.231H796.355C796.355 360.305 792.017 349.458 783.339 342.689C774.661 335.92 762.859 332.536 747.934 332.536C739.603 332.536 732.574 333.577 726.847 335.66C721.119 337.743 716.433 340.433 712.789 343.73C709.144 347.028 706.541 350.673 704.979 354.664C703.417 358.656 702.636 362.474 702.636 366.119C702.636 373.408 703.937 379.222 706.541 383.561C709.144 387.9 713.223 391.284 718.776 393.714C722.595 395.45 726.933 397.012 731.793 398.4C736.653 399.789 742.293 401.264 748.715 402.826C754.442 404.214 760.082 405.603 765.636 406.991C771.19 408.38 776.093 410.245 780.345 412.588C784.597 414.931 788.068 417.925 790.758 421.57C793.448 425.214 794.793 429.987 794.793 435.888C794.793 441.615 793.448 446.475 790.758 450.467C788.068 454.458 784.64 457.712 780.475 460.229C776.31 462.746 771.667 464.568 766.547 465.696C761.427 466.824 756.438 467.388 751.578 467.388C735.785 467.388 723.679 463.874 715.262 456.845C706.844 449.816 702.636 438.752 702.636 423.652H697.429C697.429 440.487 701.985 452.809 711.097 460.619C720.208 468.429 733.702 472.334 751.578 472.334C757.306 472.334 763.076 471.684 768.89 470.382C774.704 469.08 779.911 466.954 784.51 464.004C789.109 461.053 792.841 457.235 795.705 452.549C798.568 447.863 800 442.136 800 435.367C800 428.946 798.742 423.739 796.225 419.747C793.709 415.756 790.411 412.458 786.333 409.855C782.254 407.251 777.655 405.212 772.535 403.737C767.415 402.262 762.252 400.83 757.045 399.441C749.756 397.532 743.378 395.884 737.911 394.495C732.444 393.107 727.367 391.458 722.681 389.549C718.169 387.64 714.568 384.906 711.878 381.348C709.188 377.791 707.842 372.714 707.842 366.119C707.842 364.904 708.19 362.735 708.884 359.611C709.578 356.487 711.227 353.319 713.83 350.109C716.433 346.898 720.425 344.034 725.805 341.518C731.186 339.001 738.562 337.743 747.934 337.743C754.355 337.743 760.213 338.437 765.506 339.825C770.799 341.214 775.355 343.427 779.173 346.464C782.992 349.501 785.942 353.363 788.025 358.049C790.107 362.735 791.149 368.462 791.149 375.231Z" fill="white"/>
</svg>
